<svg width="40" height="40" viewBox="0 0 40 40" fill="none" xmlns="http://www.w3.org/2000/svg">
<g clip-path="url(#clip0_252_181)">
<path d="M20 0C8.9543 0 0 8.9543 0 20V20.03C0 31.0757 8.92431 40 19.97 40H20C31.0457 40 40 31.0757 40 20.03V20C40 8.9543 31.0757 0 20.03 0H20Z" fill="#FFEDD5"/>
<mask id="mask0_252_181" style="mask-type:luminance" maskUnits="userSpaceOnUse" x="12" y="12" width="16" height="16">
<path d="M12 12H28V28H12V12Z" fill="white"/>
</mask>
<g mask="url(#mask0_252_181)">
<path d="M25.5 12H14.5C13.7 12 13 12.7 13 13.5V26.5C13 27.3 13.7 28 14.5 28H25.5C26.3 28 27 27.3 27 26.5V13.5C27 12.7 26.3 12 25.5 12ZM17 25.6C17 25.8 16.8 26 16.6 26H15.4C15.2 26 15 25.8 15 25.6V24.4C15 24.2 15.2 24 15.4 24H16.6C16.8 24 17 24.2 17 24.4V25.6ZM17 21.6C17 21.8 16.8 22 16.6 22H15.4C15.2 22 15 21.8 15 21.6V20.4C15 20.2 15.2 20 15.4 20H16.6C16.8 20 17 20.2 17 20.4V21.6ZM21 25.6C21 25.8 20.8 26 20.6 26H19.4C19.2 26 19 25.8 19 25.6V24.4C19 24.2 19.2 24 19.4 24H20.6C20.8 24 21 24.2 21 24.4V25.6ZM21 21.6C21 21.8 20.8 22 20.6 22H19.4C19.2 22 19 21.8 19 21.6V20.4C19 20.2 19.2 20 19.4 20H20.6C20.8 20 21 20.2 21 20.4V21.6ZM25 25.6C25 25.8 24.8 26 24.6 26H23.4C23.2 26 23 25.8 23 25.6V20.4C23 20.2 23.2 20 23.4 20H24.6C24.8 20 25 20.2 25 20.4V25.6ZM25 17.6C25 17.8 24.8 18 24.6 18H15.4C15.2 18 15 17.8 15 17.6V14.4C15 14.2 15.2 14 15.4 14H24.6C24.8 14 25 14.2 25 14.4V17.6Z" fill="#F97316"/>
</g>
</g>
<defs>
<clipPath id="clip0_252_181">
<rect width="40" height="40" fill="white"/>
</clipPath>
</defs>
</svg>
