<svg width="44" height="44" viewBox="0 0 44 44" fill="none" xmlns="http://www.w3.org/2000/svg">
<g clip-path="url(#clip0_252_164)">
<path d="M22 0C9.84973 0 0 9.84973 0 22V22.033C0 34.1833 9.81674 44 21.967 44H22C34.1503 44 44 34.1833 44 22.033V22C44 9.84973 34.1833 0 22.033 0H22Z" fill="#F9E6FF"/>
<mask id="mask0_252_164" style="mask-type:luminance" maskUnits="userSpaceOnUse" x="14" y="14" width="16" height="16">
<path d="M14 14H30V30H14V14Z" fill="white"/>
</mask>
<g mask="url(#mask0_252_164)">
<path d="M28.5 22C28.5 20.2051 27.8654 18.673 26.5962 17.4038C25.327 16.1346 23.7949 15.5 22 15.5C20.2051 15.5 18.673 16.1346 17.4038 17.4038C16.1346 18.673 15.5 20.2051 15.5 22C15.5 23.7949 16.1346 25.327 17.4038 26.5962C18.673 27.8654 20.2051 28.5 22 28.5C23.7949 28.5 25.327 27.8654 26.5962 26.5962C27.8654 25.327 28.5 23.7949 28.5 22ZM14 22C14 19.7909 14.781 17.9052 16.3431 16.3431C17.9052 14.781 19.7909 14 22 14C24.2091 14 26.0948 14.781 27.6569 16.3431C29.219 17.9052 30 19.7909 30 22C30 24.2091 29.219 26.0948 27.6569 27.6569C26.0948 29.219 24.2091 30 22 30C19.7909 30 17.9052 29.219 16.3431 27.6569C14.781 26.0948 14 24.2091 14 22ZM19.55 23.9406C20.025 24.4531 20.8375 25 22 25C23.1625 25 23.975 24.4531 24.45 23.9406C24.7312 23.6375 25.2063 23.6156 25.5094 23.8969C25.8125 24.1781 25.8344 24.6531 25.5531 24.9563C24.8656 25.7 23.6781 26.5 22.0031 26.5C20.3281 26.5 19.1375 25.7031 18.4531 24.9563C18.1719 24.6531 18.1906 24.1781 18.4969 23.8969C18.8031 23.6156 19.275 23.6344 19.5563 23.9406H19.55ZM18.5125 20.5C18.5125 20.2239 18.6101 19.9882 18.8054 19.7929C19.0006 19.5976 19.2364 19.5 19.5125 19.5C19.7886 19.5 20.0243 19.5976 20.2196 19.7929C20.4149 19.9882 20.5125 20.2239 20.5125 20.5C20.5125 20.7761 20.4149 21.0118 20.2196 21.2071C20.0243 21.4024 19.7886 21.5 19.5125 21.5C19.2364 21.5 19.0006 21.4024 18.8054 21.2071C18.6101 21.0118 18.5125 20.7761 18.5125 20.5ZM24.5125 19.5C24.7886 19.5 25.0243 19.5976 25.2196 19.7929C25.4149 19.9882 25.5125 20.2239 25.5125 20.5C25.5125 20.7761 25.4149 21.0118 25.2196 21.2071C25.0243 21.4024 24.7886 21.5 24.5125 21.5C24.2364 21.5 24.0007 21.4024 23.8054 21.2071C23.6101 21.0118 23.5125 20.7761 23.5125 20.5C23.5125 20.2239 23.6101 19.9882 23.8054 19.7929C24.0007 19.5976 24.2364 19.5 24.5125 19.5Z" fill="#8162C6"/>
</g>
</g>
<defs>
<clipPath id="clip0_252_164">
<rect width="44" height="44" fill="white"/>
</clipPath>
</defs>
</svg>
