<svg width="44" height="44" viewBox="0 0 44 44" fill="none" xmlns="http://www.w3.org/2000/svg">
<g clip-path="url(#clip0_252_150)">
<path d="M22 0C9.84973 0 0 9.84973 0 22V22.033C0 34.1833 9.81674 44 21.967 44H22C34.1503 44 44 34.1833 44 22.033V22C44 9.84973 34.1833 0 22.033 0H22Z" fill="#DBEAFE"/>
<mask id="mask0_252_150" style="mask-type:luminance" maskUnits="userSpaceOnUse" x="13" y="14" width="18" height="16">
<path d="M13.2002 14.1778H30.8002V29.8222H13.2002V14.1778Z" fill="white"/>
</mask>
<g mask="url(#mask0_252_150)">
<path d="M29.3336 27.2148H14.6669C13.8568 27.2148 13.2002 26.6311 13.2002 25.9111V18.0889C13.2002 17.3688 13.8568 16.7852 14.6669 16.7852H29.3336C30.1436 16.7852 30.8002 17.3688 30.8002 18.0889V25.9111C30.8002 26.6311 30.1436 27.2148 29.3336 27.2148ZM17.1113 19.9358V18.8494C17.1113 18.6694 16.9471 18.5234 16.7446 18.5234H15.5224C15.3199 18.5234 15.1558 18.6694 15.1558 18.8494V19.9358C15.1558 20.1158 15.3199 20.2617 15.5224 20.2617H16.7446C16.9471 20.2617 17.1113 20.1158 17.1113 19.9358ZM20.0446 19.9358V18.8494C20.0446 18.6694 19.8805 18.5234 19.678 18.5234H18.4558C18.2533 18.5234 18.0891 18.6694 18.0891 18.8494V19.9358C18.0891 20.1158 18.2533 20.2617 18.4558 20.2617H19.678C19.8805 20.2617 20.0446 20.1158 20.0446 19.9358ZM22.978 19.9358V18.8494C22.978 18.6694 22.8138 18.5234 22.6113 18.5234H21.3891C21.1866 18.5234 21.0224 18.6694 21.0224 18.8494V19.9358C21.0224 20.1158 21.1866 20.2617 21.3891 20.2617H22.6113C22.8138 20.2617 22.978 20.1158 22.978 19.9358ZM25.9114 19.9358V18.8494C25.9114 18.6694 25.7471 18.5234 25.5446 18.5234H24.3224C24.1199 18.5234 23.9558 18.6694 23.9558 18.8494V19.9358C23.9558 20.1158 24.1199 20.2617 24.3224 20.2617H25.5446C25.7471 20.2617 25.9114 20.1158 25.9114 19.9358ZM28.8446 19.9358V18.8494C28.8446 18.6694 28.6805 18.5234 28.478 18.5234H27.2558C27.0533 18.5234 26.889 18.6694 26.889 18.8494V19.9358C26.889 20.1158 27.0533 20.2617 27.2558 20.2617H28.478C28.6805 20.2617 28.8446 20.1158 28.8446 19.9358ZM18.578 22.5432V21.4568C18.578 21.2768 18.4138 21.1308 18.2113 21.1308H16.9891C16.7866 21.1308 16.6224 21.2768 16.6224 21.4568V22.5432C16.6224 22.7232 16.7866 22.8691 16.9891 22.8691H18.2113C18.4138 22.8691 18.578 22.7232 18.578 22.5432ZM21.5113 22.5432V21.4568C21.5113 21.2768 21.3471 21.1308 21.1446 21.1308H19.9224C19.7199 21.1308 19.5558 21.2768 19.5558 21.4568V22.5432C19.5558 22.7232 19.7199 22.8691 19.9224 22.8691H21.1446C21.3471 22.8691 21.5113 22.7232 21.5113 22.5432ZM24.4446 22.5432V21.4568C24.4446 21.2768 24.2805 21.1308 24.078 21.1308H22.8558C22.6533 21.1308 22.4891 21.2768 22.4891 21.4568V22.5432C22.4891 22.7232 22.6533 22.8691 22.8558 22.8691H24.078C24.2805 22.8691 24.4446 22.7232 24.4446 22.5432ZM27.378 22.5432V21.4568C27.378 21.2768 27.2138 21.1308 27.0114 21.1308H25.789C25.5866 21.1308 25.4224 21.2768 25.4224 21.4568V22.5432C25.4224 22.7232 25.5866 22.8691 25.789 22.8691H27.0114C27.2138 22.8691 27.378 22.7232 27.378 22.5432ZM17.1113 25.1506V24.0642C17.1113 23.8842 16.9471 23.7382 16.7446 23.7382H15.5224C15.3199 23.7382 15.1558 23.8842 15.1558 24.0642V25.1506C15.1558 25.3306 15.3199 25.4765 15.5224 25.4765H16.7446C16.9471 25.4765 17.1113 25.3306 17.1113 25.1506ZM25.9114 25.1506V24.0642C25.9114 23.8842 25.7471 23.7382 25.5446 23.7382H18.4558C18.2533 23.7382 18.0891 23.8842 18.0891 24.0642V25.1506C18.0891 25.3306 18.2533 25.4765 18.4558 25.4765H25.5446C25.7471 25.4765 25.9114 25.3306 25.9114 25.1506ZM28.8446 25.1506V24.0642C28.8446 23.8842 28.6805 23.7382 28.478 23.7382H27.2558C27.0533 23.7382 26.889 23.8842 26.889 24.0642V25.1506C26.889 25.3306 27.0533 25.4765 27.2558 25.4765H28.478C28.6805 25.4765 28.8446 25.3306 28.8446 25.1506Z" fill="#3B82F6"/>
</g>
</g>
<defs>
<clipPath id="clip0_252_150">
<rect width="44" height="44" fill="white"/>
</clipPath>
</defs>
</svg>
